<svg width="35px" height="38px" viewBox="0 0 35 38" version="1.1" xmlns="http://www.w3.org/2000/svg" xmlns:xlink="http://www.w3.org/1999/xlink">
  <path d="M4.375,0 L30.625,0 C33.0414583,0 35,1.96284615 35,4.38461538 L35,38 L0,38 L0,4.38461538 C0,1.96284615 1.95854167,0 4.375,0 Z M3,4.45454545 L3,35 L15,35 L15,28 L21,28 L21,35 L32,35 L32,4.45454545 C32,3.65127273 31.3507625,3 30.55,3 L4.45,3 C3.6492375,3 3,3.65127273 3,4.45454545 Z M24,10 L24,6 L30,6 L30,10 L24,10 Z M15,10 L15,6 L21,6 L21,10 L15,10 Z M6,10 L6,6 L12,6 L12,10 L6,10 Z M24,17 L24,13 L30,13 L30,17 L24,17 Z M15,17 L15,13 L21,13 L21,17 L15,17 Z M6,17 L6,13 L12,13 L12,17 L6,17 Z M24,24 L24,20 L30,20 L30,24 L24,24 Z M15,24 L15,20 L21,20 L21,24 L15,24 Z M6,24 L6,20 L12,20 L12,24 L6,24 Z M24,32 L24,28 L30,28 L30,32 L24,32 Z M6,32 L6,28 L12,28 L12,32 L6,32 Z"></path>
</svg>
