<svg width="34px" height="28px" viewBox="0 0 34 28" version="1.1" xmlns="http://www.w3.org/2000/svg" xmlns:xlink="http://www.w3.org/1999/xlink">
    <path d="M12,15h1c0-2.2,1.8-4,4-4v-1C14.2,10,12,12.2,12,15z"/>
    <circle cx="27" cy="8" r="1"/>
    <path d="M17,6c-5,0-9,4-9,9s4,9,9,9s9-4,9-9S22,6,17,6z M17,22c-3.9,0-7-3.1-7-7s3.1-7,7-7s7,3.1,7,7S20.9,22,17,22z"/>
    <rect x="4" y="2" width="4" height="1"/>
    <path d="M31,4h-6c-0.2,0-0.5-0.2-0.6-0.3l-1.1-2.2C22.9,0.6,21.9,0,21,0h-8c-0.9,0-1.9,0.6-2.3,1.4L9.6,3.7C9.5,3.8,9.2,4,9,4H3
      C1.3,4,0,5.3,0,7v18c0,1.7,1.3,3,3,3h28c1.7,0,3-1.3,3-3V7C34,5.3,32.7,4,31,4z M32,25c0,0.6-0.4,1-1,1H3c-0.6,0-1-0.4-1-1V7
      c0-0.6,0.4-1,1-1h6c0.9,0,1.9-0.6,2.3-1.4l1.1-2.2C12.5,2.2,12.8,2,13,2h8c0.2,0,0.5,0.2,0.6,0.3l1.1,2.2C23.1,5.4,24.1,6,25,6h6
      c0.6,0,1,0.4,1,1V25z"/>
</svg>
