<svg width="38px" height="38px" viewBox="0 0 38 38" version="1.1" xmlns="http://www.w3.org/2000/svg" xmlns:xlink="http://www.w3.org/1999/xlink">
    <path d="M21.67,37.93 L16.33,37.93 L14.789,33.31 C13.77,33.011 12.788,32.604 11.857,32.096 L7.503,34.273 L3.726,30.497 L5.904,26.142 C5.396,25.213 4.99,24.231 4.69,23.21 L0.07,21.67 L0.07,16.33 L4.69,14.79 C4.99,13.769 5.396,12.787 5.904,11.858 L3.726,7.503 L7.503,3.726 L11.857,5.904 C12.788,5.396 13.77,4.989 14.789,4.69 L16.33,0.07 L21.67,0.07 L23.211,4.69 C24.229,4.989 25.212,5.396 26.143,5.904 L30.497,3.726 L34.274,7.503 L32.096,11.858 C32.604,12.787 33.01,13.769 33.31,14.79 L37.93,16.33 L37.93,21.67 L33.31,23.21 C33.01,24.231 32.604,25.213 32.096,26.142 L34.274,30.497 L30.497,34.273 L26.143,32.096 C25.212,32.604 24.229,33.011 23.211,33.31 L21.67,37.93 Z M17.67,36.07 L20.33,36.07 L21.764,31.77 L22.254,31.644 C23.445,31.338 24.585,30.867 25.641,30.242 L26.077,29.984 L30.13,32.011 L32.011,30.13 L29.983,26.077 L30.242,25.64 C30.865,24.587 31.337,23.448 31.645,22.253 L31.77,21.763 L36.07,20.33 L36.07,17.67 L31.77,16.237 L31.645,15.747 C31.337,14.552 30.865,13.413 30.242,12.36 L29.983,11.923 L32.011,7.87 L30.13,5.989 L26.077,8.016 L25.641,7.758 C24.585,7.133 23.445,6.662 22.254,6.356 L21.764,6.23 L20.33,1.93 L17.67,1.93 L16.236,6.23 L15.746,6.356 C14.555,6.662 13.415,7.133 12.359,7.758 L11.923,8.016 L7.87,5.989 L5.989,7.87 L8.017,11.923 L7.758,12.36 C7.135,13.413 6.663,14.552 6.355,15.747 L6.229,16.237 L1.93,17.67 L1.93,20.33 L6.229,21.763 L6.355,22.253 C6.663,23.448 7.135,24.587 7.758,25.64 L8.017,26.077 L5.989,30.13 L7.87,32.011 L11.923,29.984 L12.359,30.242 C13.415,30.867 14.555,31.338 15.746,31.644 L16.236,31.77 L17.67,36.07 Z M19,27.93 C14.076,27.93 10.07,23.924 10.07,19 C10.07,14.076 14.076,10.07 19,10.07 C23.924,10.07 27.93,14.076 27.93,19 C27.93,23.924 23.924,27.93 19,27.93 Z M19,11.93 C15.102,11.93 11.93,15.102 11.93,19 C11.93,22.898 15.102,26.07 19,26.07 C22.898,26.07 26.07,22.898 26.07,19 C26.07,15.102 22.898,11.93 19,11.93 Z"></path>
</svg>
