<svg width="34px" height="26px" viewBox="0 0 34 26" version="1.1" xmlns="http://www.w3.org/2000/svg" xmlns:xlink="http://www.w3.org/1999/xlink">
  <g>
    <path d="M4,14h1v2H4V14z M6,16h1v-2H6V16z M8,16h1v-2H8V16z M11,16h1v-2h-1V16z M13,16h1v-2h-1V16z M15,16h1v-2h-1V16z M18,16h1v-2 h-1V16z M20,16h1v-2h-1V16z M22,16h1v-2h-1V16z M25,16h1v-2h-1V16z M27,16h1v-2h-1V16z M29,14v2h1v-2H29z" />
    <path d="M31,0H3C1.3,0,0,1.3,0,3v20c0,1.7,1.3,3,3,3h28c1.7,0,3-1.3,3-3V3C34,1.3,32.7,0,31,0z M32,23c0,0.6-0.4,1-1,1H3 c-0.6,0-1-0.4-1-1V10h30V23z M32,4H2V3c0-0.6,0.4-1,1-1h28c0.6,0,1,0.4,1,1V4z" />
  </g>
</svg>
