<svg width="26px" height="34px" viewBox="0 0 26 34" version="1.1" xmlns="http://www.w3.org/2000/svg" xmlns:xlink="http://www.w3.org/1999/xlink">
    <path d="M23,0 L8,0 C6.35,0 5,1.39090909 5,3.09090909 L5,7.72727273 L8,7.72727273 L8,4.63636364 L23,4.63636364 L23,29.3636364 L8,29.3636364 L8,26.2727273 L5,26.2727273 L5,30.9090909 C5,32.6090909 6.35,34 8,34 L23,34 C24.65,34 26,32.6090909 26,30.9090909 L26,3.09090909 C26,1.39090909 24.65,0 23,0 Z M10.2,15.4545455 L10.2,13.1363636 C10.2,10.9727273 8.1,9.27272727 6,9.27272727 C3.9,9.27272727 1.8,10.9727273 1.8,13.1363636 L1.8,15.4545455 C0.9,15.4545455 0,16.3818182 0,17.3090909 L0,22.7181818 C0,23.8 0.9,24.7272727 1.8,24.7272727 L10.05,24.7272727 C11.1,24.7272727 12,23.8 12,22.8727273 L12,17.4636364 C12,16.3818182 11.1,15.4545455 10.2,15.4545455 Z M9,15.4545455 L4,15.4545455 L4,13.2467532 C4,12.0692641 5.16666667,11.3333333 6.5,11.3333333 C7.83333333,11.3333333 9,12.0692641 9,13.2467532 L9,15.4545455 Z" />
</svg>
