<svg width="28px" height="34px" viewBox="0 0 28 34" version="1.1" xmlns="http://www.w3.org/2000/svg" xmlns:xlink="http://www.w3.org/1999/xlink">
    <path d="M13.6640148,17.7727273 L13.6640148,16.2272727 L15.3640148,14.9909091 C15.5185603,14.8363636 15.5185603,14.6818182 15.5185603,14.5272727 L13.9731057,11.9 C13.8185603,11.7454545 13.6640148,11.5909091 13.5094694,11.7454545 L11.5003785,12.3636364 C11.0367421,12.0545455 10.5731057,11.7454545 10.1094694,11.5909091 L9.80037846,9.58181818 C9.80037846,9.42727273 9.64583301,9.27272727 9.3367421,9.27272727 L6.24583301,9.27272727 C6.09128755,9.27272727 5.9367421,9.42727273 5.78219664,9.58181818 L5.47310573,11.5909091 C5.00946937,11.7454545 4.54583301,12.0545455 4.08219664,12.3636364 L2.07310573,11.5909091 C1.91856028,11.5909091 1.76401482,11.5909091 1.60946937,11.7454545 L0.0640148233,14.3727273 C-0.0905306313,14.5272727 0.0640148233,14.6818182 0.218560278,14.8363636 L1.91856028,16.0727273 L1.91856028,17.6181818 L0.218560278,18.8545455 C0.0640148233,19.1636364 0.0640148233,19.3181818 0.0640148233,19.4727273 L1.60946937,22.1 C1.76401482,22.2545455 1.91856028,22.4090909 2.07310573,22.2545455 L4.2367421,21.6363636 C4.70037846,21.9454545 5.16401482,22.2545455 5.62765119,22.4090909 L5.9367421,24.4181818 C5.78219664,24.5727273 6.09128755,24.7272727 6.24583301,24.7272727 L9.3367421,24.7272727 C9.49128755,24.7272727 9.64583301,24.5727273 9.80037846,24.4181818 L10.1094694,22.4090909 C10.5731057,22.2545455 11.0367421,21.9454545 11.5003785,21.6363636 L13.5094694,22.4090909 C13.6640148,22.4090909 13.8185603,22.4090909 13.9731057,22.2545455 L15.5185603,19.6272727 C15.6731057,19.4727273 15.5185603,19.3181818 15.3640148,19.1636364 L13.6640148,17.7727273 L13.6640148,17.7727273 Z M7.79128755,20.0909091 C6.09128755,20.0909091 4.70037846,18.7 4.70037846,17 C4.70037846,15.3 6.09128755,13.9090909 7.79128755,13.9090909 C9.49128755,13.9090909 10.8821966,15.3 10.8821966,17 C10.8821966,18.7 9.49128755,20.0909091 7.79128755,20.0909091 Z M24.7912876,0 L9.3367421,0 C7.6367421,0 6.24583301,1.39090909 6.24583301,3.09090909 L6.24583301,7.72727273 L9.3367421,7.72727273 L9.3367421,4.63636364 L24.7912876,4.63636364 L24.7912876,29.3636364 L9.3367421,29.3636364 L9.3367421,26.2727273 L6.24583301,26.2727273 L6.24583301,30.9090909 C6.24583301,32.6090909 7.6367421,34 9.3367421,34 L24.7912876,34 C26.4912876,34 27.8821966,32.6090909 27.8821966,30.9090909 L27.8821966,3.09090909 C27.8821966,1.39090909 26.4912876,0 24.7912876,0 Z" />
</svg>
