<svg width="35px" height="35px" viewBox="0 0 35 35" version="1.1" xmlns="http://www.w3.org/2000/svg" xmlns:xlink="http://www.w3.org/1999/xlink">
    <path d="M10.1,28.1c0,0.7-0.3,1.3-0.8,1.8c-0.5,0.5-1.1,0.8-1.8,0.8c-0.7,0-1.3-0.3-1.8-0.8 c-0.5-0.5-0.8-1.1-0.8-1.8c0-0.7,0.3-1.3,0.8-1.8c0.5-0.5,1.1-0.8,1.8-0.8s1.3,0.3,1.8,0.8C9.8,26.8,10.1,27.4,10.1,28.1z M20.1,32.3c0,0.7-0.3,1.3-0.8,1.8c-0.5,0.5-1.1,0.8-1.8,0.8s-1.3-0.3-1.8-0.8c-0.5-0.5-0.8-1.1-0.8-1.8c0-0.7,0.3-1.3,0.8-1.8 c0.5-0.5,1.1-0.8,1.8-0.8s1.3,0.3,1.8,0.8C19.8,31,20.1,31.6,20.1,32.3z M5.9,18.1c0,0.7-0.3,1.3-0.8,1.8s-1.1,0.8-1.8,0.8 S2,20.5,1.5,20s-0.8-1.1-0.8-1.8c0-0.7,0.3-1.3,0.8-1.8c0.5-0.5,1.1-0.8,1.8-0.8s1.3,0.3,1.8,0.8C5.7,16.8,5.9,17.4,5.9,18.1z M30.1,28.1c0,0.7-0.3,1.3-0.8,1.8c-0.5,0.5-1.1,0.8-1.8,0.8c-0.7,0-1.3-0.3-1.8-0.8c-0.5-0.5-0.8-1.1-0.8-1.8s0.3-1.3,0.8-1.8 c0.5-0.5,1.1-0.8,1.8-0.8c0.7,0,1.3,0.3,1.8,0.8C29.8,26.8,30.1,27.4,30.1,28.1z M10.7,8.1c0,0.9-0.3,1.6-0.9,2.3 c-0.6,0.6-1.4,0.9-2.3,0.9S5.9,11,5.2,10.4C4.6,9.8,4.3,9,4.3,8.1s0.3-1.6,0.9-2.3s1.4-0.9,2.3-0.9s1.6,0.3,2.3,0.9 S10.7,7.3,10.7,8.1z M34.2,18.1c0,0.7-0.3,1.3-0.8,1.8s-1.1,0.8-1.8,0.8c-0.7,0-1.3-0.3-1.8-0.8c-0.5-0.5-0.8-1.1-0.8-1.8 c0-0.7,0.3-1.3,0.8-1.8c0.5-0.5,1.1-0.8,1.8-0.8c0.7,0,1.3,0.3,1.8,0.8C34,16.8,34.2,17.4,34.2,18.1z M21.4,4c0,1.1-0.4,2-1.1,2.7 s-1.7,1.1-2.7,1.1s-2-0.4-2.7-1.1S13.6,5.1,13.6,4s0.4-2,1.1-2.7s1.7-1.1,2.7-1.1s2,0.4,2.7,1.1S21.4,2.9,21.4,4z M32,8.1 c0,1.2-0.4,2.3-1.3,3.2c-0.9,0.9-1.9,1.3-3.2,1.3c-1.2,0-2.3-0.4-3.2-1.3C23.4,10.4,23,9.4,23,8.1c0-1.2,0.4-2.3,1.3-3.2 s1.9-1.3,3.2-1.3c1.2,0,2.3,0.4,3.2,1.3C31.6,5.8,32,6.9,32,8.1z" />
</svg>
