<svg width="44px" height="28px" viewBox="0 0 44 28" version="1.1" xmlns="http://www.w3.org/2000/svg" xmlns:xlink="http://www.w3.org/1999/xlink">
    <path d="M14,12 L27.22,12 C27.34,12.7 27.44,13.4 27.44,14.32 C27.44,22.32 22.08,28 14,28 C6.26,28 0,21.74 0,14 C0,6.26 6.26,0 14,0 C17.78,0 20.94,1.38 23.38,3.66 L19.58,7.32 C18.54,6.32 16.72,5.16 14,5.16 C9.22,5.16 5.32,9.12 5.32,14 C5.32,18.88 9.22,22.84 14,22.84 C19.54,22.84 21.62,18.86 21.94,16.8 L14,16.8 L14,12 Z M44,12 L44,16 L40,16 L40,20 L36,20 L36,16 L32,16 L32,12 L36,12 L36,8 L40,8 L40,12 L44,12 Z"></path>
</svg>
