<svg width="26px" height="37px" viewBox="0 0 26 37" version="1.1" xmlns="http://www.w3.org/2000/svg" xmlns:xlink="http://www.w3.org/1999/xlink">
  <g>
    <path d="M13,0C5.8,0,0,5.9,0,13.2c0,8.4,11.8,22.4,12.3,23L13,37l0.7-0.8c0.5-0.6,12.3-14.6,12.3-23C26,5.9,20.2,0,13,0z M13,34.1
      C10.4,30.9,1.9,19.7,1.9,13.2c0-6.2,5-11.3,11.1-11.3s11.1,5.1,11.1,11.3C24.1,19.7,15.6,30.9,13,34.1z"/>
    <path d="M13,8.1c-2.7,0-5,2.3-5,5s2.2,5,5,5s5-2.3,5-5S15.7,8.1,13,8.1z M13,16.3c-1.7,0-3.1-1.4-3.1-3.1S11.3,10,13,10
      s3.1,1.4,3.1,3.1S14.7,16.3,13,16.3z"/>
  </g>
</svg>
