<svg width="22px" height="30px" viewBox="0 0 22 30" version="1.1" xmlns="http://www.w3.org/2000/svg" xmlns:xlink="http://www.w3.org/1999/xlink">
    <path d="M10.1947617,19.83143 C9.49104808,19.5217597 9,18.8184889 9,18 C9,16.895 9.895,16 11,16 C12.105,16 13,16.895 13,18 C13,18.8184889 12.5089519,19.5217597 11.8052383,19.83143 L12.5,24 L9.5,24 L10.1947617,19.83143 Z M18.07,12 L18.07,9 C18.07,5.102 14.898,1.93 11,1.93 C7.102,1.93 3.93,5.102 3.93,9 L3.93,12 L18.07,12 Z M2.07,12.1475565 L2.07,9 C2.07,4.076 6.076,0.07 11,0.07 C15.924,0.07 19.93,4.076 19.93,9 L19.93,12.1475565 C21.1302912,12.5399413 22,13.6704646 22,15 L22,27 C22,28.654 20.654,30 19,30 L3,30 C1.346,30 0,28.654 0,27 L0,15 C0,13.6704646 0.869708777,12.5399413 2.07,12.1475565 Z M3,14 C2.448,14 2,14.449 2,15 L2,27 C2,27.551 2.448,28 3,28 L19,28 C19.552,28 20,27.551 20,27 L20,15 C20,14.449 19.552,14 19,14 L3,14 Z"></path>
</svg>
