<svg width="34px" height="34px" viewBox="0 0 34 34" version="1.1" xmlns="http://www.w3.org/2000/svg" xmlns:xlink="http://www.w3.org/1999/xlink">
    <path d="M17,33.93 C7.665,33.93 0.07,26.335 0.07,17 C0.07,7.665 7.665,0.07 17,0.07 C26.335,0.07 33.93,7.665 33.93,17 C33.93,26.335 26.335,33.93 17,33.93 Z M11.794,11.647 C12.054,10.893 12.439,10.252 12.951,9.723 C13.462,9.194 14.082,8.783 14.81,8.488 C15.538,8.193 16.37,8.046 17.306,8.046 C18.034,8.046 18.714,8.154 19.347,8.371 C19.98,8.588 20.539,8.904 21.024,9.32 C21.509,9.736 21.891,10.239 22.168,10.828 C22.445,11.417 22.584,12.094 22.584,12.856 C22.584,13.827 22.372,14.65 21.947,15.326 C21.522,16.002 20.98,16.652 20.322,17.276 C19.785,17.813 19.355,18.234 19.035,18.537 C18.714,18.841 18.476,19.14 18.32,19.434 C18.164,19.728 18.06,20.089 18.008,20.513 C17.956,20.938 17.921,21.203 17.904,22 L16.266,22 C16.249,21.203 16.292,20.882 16.396,20.344 C16.5,19.807 16.669,19.321 16.903,18.888 C17.137,18.455 17.449,18.039 17.839,17.64 C18.229,17.241 18.701,16.791 19.256,16.288 C19.741,15.838 20.144,15.335 20.465,14.78 C20.786,14.226 20.946,13.61 20.946,12.934 C20.946,12.414 20.846,11.938 20.647,11.504 C20.448,11.071 20.179,10.702 19.841,10.399 C19.503,10.096 19.108,9.857 18.658,9.684 C18.207,9.511 17.73,9.424 17.228,9.424 C16.535,9.424 15.919,9.546 15.382,9.788 C14.845,10.031 14.402,10.364 14.056,10.789 C13.709,11.214 13.449,11.712 13.276,12.284 C13.102,12.856 13.024,13.324 13.042,14 L11.404,14 C11.404,13.081 11.534,12.401 11.794,11.647 Z M17,1.93 C8.69,1.93 1.93,8.69 1.93,17 C1.93,25.31 8.69,32.07 17,32.07 C25.31,32.07 32.07,25.31 32.07,17 C32.07,8.69 25.31,1.93 17,1.93 Z M16.006,24 L18,24 L18,26 L16.006,26 L16.006,24 Z"></path>
</svg>
