<svg width="38px" height="36px" viewBox="0 0 38 36" version="1.1" xmlns="http://www.w3.org/2000/svg" xmlns:xlink="http://www.w3.org/1999/xlink">
    <path d="M29.838,35.537 C29.646,35.537 29.454,35.477 29.292,35.359 L18.999,27.882 L8.708,35.359 C8.383,35.595 7.941,35.595 7.615,35.359 C7.289,35.122 7.153,34.702 7.277,34.319 L11.208,22.221 L0.916,14.744 C0.59,14.507 0.454,14.087 0.579,13.704 C0.703,13.321 1.06,13.061 1.463,13.061 L14.184,13.061 L18.115,0.962 C18.24,0.58 18.597,0.32 18.999,0.32 C19.402,0.32 19.759,0.58 19.884,0.962 L23.815,13.061 L36.536,13.061 C36.939,13.061 37.296,13.321 37.42,13.704 C37.545,14.087 37.409,14.507 37.083,14.744 L26.792,22.221 L30.722,34.319 C30.847,34.702 30.71,35.122 30.385,35.359 C30.222,35.477 30.03,35.537 29.838,35.537 L29.838,35.537 Z" id="path-1"></path>
</svg>
