<svg width="34px" height="34px" viewBox="0 0 34 34" version="1.1" xmlns="http://www.w3.org/2000/svg" xmlns:xlink="http://www.w3.org/1999/xlink">
  <path d="M17,0C7.6,0,0,7.6,0,17s7.6,17,17,17c9.4,0,17-7.6,17-17S26.4,0,17,0z M17,32.1c-3.6,0-6.8-1.2-9.4-3.3
    c0.6-0.4,1.6-0.9,2.4-1.2c2.3-1,5-2.2,5-4.6l0-2.5l-0.4-0.3c-0.1,0-1.4-0.9-1.4-2.4l0-0.5L12.7,17c-0.3-0.2-0.9-0.9-0.9-1.4
    c0-0.4,0.3-0.7,0.3-0.7l0.4-0.4L12.4,14c0,0-0.5-2.2-0.5-3.6c0-2.9,1.9-4.6,5.1-4.6c1.2,0,2,0.4,2.2,0.7L19.5,7H20
    c1.1,0,2.1,1.7,2.1,3.4c0,2.1-0.5,3.6-0.5,3.7l-0.2,0.5l0.3,0.4c0.1,0.1,0.3,0.4,0.3,0.6c0,0.9-0.6,1.2-0.7,1.2l-0.6,0.2v0.6
    c0,1.6-1.2,2.4-1.3,2.5l-0.4,0.3V23c0,2.3,2.5,3.2,4.7,4c1.2,0.4,2.4,0.9,3.1,1.5C24.2,30.8,20.7,32.1,17,32.1z M28.2,27.2
    c-0.9-0.9-2.4-1.4-3.8-1.9c-1.7-0.6-3.4-1.3-3.4-2.2v-1.6c0.6-0.5,1.5-1.5,1.7-3.2c0.6-0.5,1.3-1.3,1.3-2.6c0-0.6-0.2-1.1-0.4-1.4
    c0.2-0.7,0.5-2.1,0.5-3.8c0-2.6-1.5-4.9-3.5-5.3C19.7,4.3,18.2,4,17,4c-4.2,0-7,2.5-7,6.5c0,1.2,0.3,2.8,0.4,3.5
    c-0.2,0.4-0.5,0.9-0.5,1.6c0,1.2,0.8,2.1,1.3,2.6c0.2,1.6,1.2,2.7,1.8,3.2V23c0,1.1-2.1,2.1-3.8,2.9c-1.2,0.5-2.3,1-3,1.7
    C3.5,24.8,1.9,21.1,1.9,17C1.9,8.7,8.7,1.9,17,1.9c8.3,0,15.1,6.8,15.1,15.1C32.1,20.9,30.6,24.5,28.2,27.2z"/>
</svg>
